<?xml version="1.0" standalone="no"?>
<!DOCTYPE svg PUBLIC "-//W3C//DTD SVG 20010904//EN"
 "http://www.w3.org/TR/2001/REC-SVG-20010904/DTD/svg10.dtd">
<svg version="1.0" xmlns="http://www.w3.org/2000/svg"
 width="824.000000pt" height="824.000000pt" viewBox="0 0 824.000000 824.000000"
 preserveAspectRatio="xMidYMid meet">
<metadata>
Created by potrace 1.11, written by Peter Selinger 2001-2013
</metadata>
<g transform="translate(0.000000,824.000000) scale(0.100000,-0.100000)"
fill="#000000" stroke="none">
<path d="M4066 7603 c-2 -2 -28 -6 -57 -8 -30 -3 -81 -7 -114 -10 -33 -2 -71
-7 -85 -9 -14 -2 -43 -7 -65 -10 -22 -3 -51 -8 -65 -11 -14 -3 -39 -7 -57 -9
-26 -4 -87 -15 -158 -31 -5 -1 -28 -5 -50 -10 -22 -4 -44 -10 -50 -14 -5 -3
-19 -6 -30 -7 -11 -1 -54 -11 -95 -24 -41 -12 -91 -26 -110 -31 -19 -6 -42
-13 -50 -16 -8 -4 -17 -7 -20 -8 -11 -2 -86 -27 -100 -32 -8 -3 -22 -7 -30 -9
-8 -2 -23 -7 -35 -13 -11 -5 -72 -30 -136 -55 -167 -65 -537 -241 -559 -267
-3 -3 -20 -12 -37 -20 -18 -8 -33 -17 -33 -21 0 -5 -4 -8 -9 -8 -19 0 -323
-196 -329 -212 -2 -4 -8 -8 -12 -8 -5 0 -40 -23 -77 -51 -37 -28 -81 -61 -96
-73 -28 -21 -42 -32 -142 -116 -254 -214 -548 -521 -710 -744 -11 -15 -36 -49
-55 -75 -19 -27 -42 -58 -50 -71 -8 -12 -21 -28 -27 -36 -7 -7 -13 -15 -13
-19 0 -3 -17 -32 -38 -63 -69 -102 -166 -274 -239 -422 -71 -143 -165 -367
-179 -425 -4 -17 -10 -34 -14 -40 -8 -11 -23 -70 -18 -71 2 0 -3 -8 -11 -17
-7 -10 -10 -17 -7 -17 4 0 2 -8 -3 -18 -6 -11 -12 -30 -15 -43 -2 -13 -14 -59
-26 -102 -12 -43 -23 -88 -26 -100 -2 -12 -6 -33 -9 -47 -4 -14 -8 -36 -11
-50 -2 -14 -7 -31 -9 -37 -7 -20 13 -15 25 6 5 11 16 25 22 33 7 7 25 31 41
54 15 22 35 49 45 60 9 11 33 40 52 64 44 58 49 63 85 104 17 18 50 57 75 87
105 125 395 407 571 554 92 77 285 222 379 285 12 8 33 23 45 33 13 9 28 17
34 17 6 0 11 3 11 8 0 4 20 18 45 32 25 14 45 28 45 32 0 5 9 8 19 8 11 0 21
4 23 9 4 11 219 135 328 190 47 24 92 47 100 52 18 11 145 69 255 116 104 45
311 124 400 153 39 12 77 25 85 28 8 3 17 6 20 7 3 1 12 4 20 7 15 6 127 39
145 44 6 2 19 5 30 8 132 34 382 95 408 99 17 3 59 11 92 17 33 7 71 14 85 16
14 2 46 6 72 10 43 6 51 12 95 68 100 128 253 252 379 307 62 27 184 69 184
64 0 -3 12 0 28 6 15 6 46 12 68 13 23 2 45 5 50 8 12 6 211 1 254 -6 19 -4
46 -9 60 -12 14 -3 36 -8 50 -11 94 -17 278 -105 380 -182 210 -158 364 -420
395 -671 5 -43 13 -61 36 -82 16 -15 29 -29 29 -32 0 -3 8 -15 18 -25 33 -38
60 -76 115 -166 37 -61 146 -293 177 -375 17 -47 36 -96 41 -109 l10 -24 27
24 c77 68 222 210 262 255 14 16 41 47 60 69 103 119 222 284 311 430 96 159
220 427 277 599 l20 59 -37 40 c-31 34 -201 202 -235 232 -172 154 -345 281
-541 400 -106 64 -380 201 -420 210 -5 2 -30 12 -55 23 -108 50 -461 155 -562
167 -22 3 -44 7 -47 9 -4 3 -27 8 -51 11 -25 4 -56 9 -70 12 -14 2 -45 6 -70
9 -25 3 -61 7 -80 10 -19 2 -60 6 -90 7 -31 2 -60 6 -65 9 -11 6 -493 7 -499
1z"/>
<path d="M4360 6232 c-41 -7 -77 -16 -80 -20 -3 -4 -12 -8 -20 -10 -22 -5
-107 -50 -131 -70 -51 -42 -116 -114 -134 -149 -11 -21 -23 -40 -26 -43 -21
-17 -52 -144 -55 -225 -4 -103 12 -177 58 -273 67 -139 229 -264 378 -291 42
-7 197 -7 225 1 11 3 35 9 53 13 18 4 35 12 38 16 3 5 13 9 23 9 20 0 141 87
181 130 84 90 133 210 144 353 3 46 -4 52 -49 37 -40 -13 -127 -17 -170 -6
-16 4 -34 8 -40 10 -35 8 -96 47 -136 86 -70 69 -109 165 -103 258 4 69 8 89
17 98 4 4 7 16 7 26 0 10 4 18 9 18 5 0 11 8 13 18 4 14 -2 19 -26 21 -78 7
-107 6 -176 -7z"/>
<path d="M7176 6064 c-36 -64 -66 -120 -66 -125 0 -4 -3 -9 -7 -11 -5 -1 -26
-32 -47 -68 -39 -64 -183 -285 -199 -305 -4 -5 -33 -46 -65 -90 -31 -44 -61
-85 -67 -91 -5 -7 -19 -24 -30 -40 -87 -121 -255 -312 -408 -464 l-118 -117
60 -39 c34 -21 61 -42 61 -46 0 -5 5 -8 11 -8 10 0 89 -57 132 -94 9 -9 21
-16 26 -16 5 0 11 -3 13 -7 2 -5 24 -24 50 -44 157 -120 370 -319 478 -448 25
-29 50 -58 55 -65 6 -6 23 -29 39 -51 17 -22 32 -42 35 -45 4 -3 12 -17 20
-32 8 -16 18 -28 23 -28 4 0 8 -6 8 -13 0 -8 11 -27 24 -42 14 -16 23 -32 20
-36 -2 -4 0 -10 6 -14 11 -7 96 -172 116 -225 7 -19 22 -60 34 -90 24 -64 67
-222 74 -271 2 -19 7 -43 9 -55 14 -56 20 -154 21 -306 1 -93 4 -168 7 -168 3
0 28 25 55 56 27 31 56 63 65 72 8 10 42 51 75 92 32 41 61 77 64 80 3 3 19
25 35 50 16 25 32 47 35 50 16 16 60 88 60 98 0 7 4 12 9 12 5 0 11 8 15 18 3
9 15 33 27 52 12 19 41 76 66 125 24 50 48 97 53 107 5 9 22 52 38 95 17 43
33 87 37 98 10 25 46 154 60 210 1 6 5 21 8 35 4 14 9 39 11 55 2 17 5 30 6
30 2 0 6 25 17 120 15 134 8 474 -12 545 -2 8 -7 29 -10 45 -5 28 -9 50 -19
100 -35 176 -156 471 -271 661 -54 89 -145 221 -170 248 -6 6 -17 20 -25 32
-43 61 -110 135 -255 279 -151 150 -184 181 -212 198 -7 5 -36 -35 -77 -109z"/>
<path d="M3352 5838 c-24 -4 -62 -9 -85 -12 -47 -6 -78 -12 -157 -27 -30 -7
-62 -13 -70 -14 -8 -2 -17 -4 -20 -5 -3 -1 -8 -2 -12 -1 -4 0 -20 -4 -35 -10
-15 -6 -37 -12 -48 -14 -26 -3 -116 -25 -135 -33 -8 -3 -17 -6 -20 -7 -76 -19
-323 -108 -415 -150 -138 -62 -231 -109 -237 -118 -4 -7 -8 -9 -8 -5 0 15
-370 -214 -378 -234 -2 -4 -10 -8 -18 -8 -8 0 -14 -4 -14 -9 0 -5 -13 -17 -29
-28 -35 -22 -103 -78 -142 -115 -16 -16 -31 -28 -34 -28 -7 0 -201 -194 -258
-257 -57 -64 -235 -303 -249 -335 -7 -15 -16 -28 -20 -28 -5 0 -8 -5 -8 -12 0
-6 -6 -19 -14 -27 -24 -27 -173 -323 -191 -381 -1 -3 -5 -12 -8 -20 -48 -115
-115 -355 -133 -480 -3 -19 -7 -42 -10 -50 -3 -8 -7 -40 -10 -70 -2 -30 -6
-80 -9 -110 -10 -117 -5 -395 10 -472 3 -12 8 -43 11 -68 3 -25 7 -52 9 -60 2
-8 7 -31 10 -50 3 -19 15 -71 26 -115 12 -44 22 -87 24 -95 6 -23 60 -179 84
-238 73 -183 255 -502 333 -586 7 -8 44 -50 83 -93 103 -115 371 -343 404
-343 5 0 11 -4 13 -8 6 -15 138 -92 266 -156 125 -63 282 -130 391 -166 89
-29 165 -52 184 -56 10 -2 27 -6 37 -9 10 -3 27 -8 37 -10 225 -48 297 -61
393 -70 30 -3 73 -8 95 -11 51 -8 547 -13 559 -6 5 2 32 6 60 8 113 8 275 35
416 70 58 14 112 27 121 29 73 15 332 116 454 177 72 36 242 135 255 148 3 3
28 21 55 40 28 19 55 39 62 45 7 5 18 15 25 20 348 271 619 693 684 1065 2 14
9 48 14 75 10 51 16 101 27 215 14 146 6 685 -12 791 -2 13 -7 60 -10 104 -4
44 -8 91 -10 105 -2 14 -6 48 -10 75 -3 28 -8 64 -10 80 -11 91 -18 134 -41
275 -14 85 -27 164 -29 175 -5 30 -43 236 -49 265 -3 14 -9 39 -12 55 -4 17
-8 37 -9 45 -1 8 -6 38 -13 65 -6 28 -25 115 -43 195 -17 80 -39 177 -49 215
-9 39 -23 98 -30 133 -13 65 -24 77 -36 40 -4 -13 -10 -25 -13 -28 -3 -3 -19
-25 -34 -49 -43 -65 -157 -175 -235 -226 -107 -69 -263 -135 -357 -151 -16 -2
-37 -7 -45 -9 -61 -16 -233 -22 -335 -11 -71 7 -189 33 -230 50 -19 8 -35 13
-35 11 0 -8 -166 78 -219 115 -81 54 -192 166 -238 237 -9 15 -20 30 -23 33
-12 11 -89 178 -101 220 -7 25 -14 50 -15 55 -2 6 -6 26 -9 45 -3 19 -8 42
-11 50 -11 31 -18 139 -17 246 l1 110 -27 0 c-14 0 -45 -3 -69 -8z"/>
<path d="M5888 4472 c-9 -40 2 -368 17 -502 9 -83 15 -127 19 -150 3 -14 7
-43 10 -65 8 -63 16 -111 42 -240 34 -165 34 -168 40 -187 3 -10 7 -30 10 -45
2 -16 7 -41 11 -58 4 -16 7 -32 7 -35 1 -3 6 -23 13 -45 7 -22 31 -118 54
-212 l41 -173 32 -1 c49 -1 156 2 174 5 9 2 40 7 67 11 28 5 52 9 55 10 7 2
84 19 90 20 3 0 10 3 15 6 6 4 23 9 39 13 44 11 208 90 273 132 96 63 258 207
249 223 -2 3 -35 71 -75 151 -39 80 -77 154 -84 165 -45 74 -156 244 -170 260
-8 11 -39 49 -68 85 -88 110 -301 313 -375 360 -13 8 -24 18 -24 22 0 5 -7 8
-15 8 -8 0 -15 5 -15 10 0 6 -6 10 -14 10 -8 0 -16 4 -18 9 -5 14 -165 110
-285 172 -92 48 -112 54 -115 41z"/>
</g>
</svg>
