<svg xmlns="http://www.w3.org/2000/svg" xmlns:xlink="http://www.w3.org/1999/xlink" viewBox="0 0 103.18 87.42"><defs><style>.cls-1{fill:url(#linear-gradient);}.cls-2{fill:url(#linear-gradient-2);}.cls-3{fill:url(#linear-gradient-3);}.cls-4{fill:url(#linear-gradient-4);}.cls-5{fill:url(#linear-gradient-5);}</style><linearGradient id="linear-gradient" x1="59.93" y1="19.95" x2="50.99" y2="28.89" gradientUnits="userSpaceOnUse"><stop offset="0" stop-color="#c3c3c3"/><stop offset="0.05" stop-color="#b8b8b8"/><stop offset="0.29" stop-color="#8c8c8c"/><stop offset="0.5" stop-color="#6c6c6c"/><stop offset="0.68" stop-color="#585858"/><stop offset="0.81" stop-color="#515151"/></linearGradient><linearGradient id="linear-gradient-2" x1="102.81" y1="29.73" x2="81.75" y2="50.79" xlink:href="#linear-gradient"/><linearGradient id="linear-gradient-3" x1="83.23" y1="45.74" x2="72.64" y2="56.34" xlink:href="#linear-gradient"/><linearGradient id="linear-gradient-4" x1="67.13" y1="30.13" x2="17.52" y2="79.75" gradientUnits="userSpaceOnUse"><stop offset="0" stop-color="#fe0"/><stop offset="1" stop-color="#ff4c00"/></linearGradient><linearGradient id="linear-gradient-5" x1="70.6" y1="-1.41" x2="12.54" y2="56.65" xlink:href="#linear-gradient-4"/></defs><title>logo</title><g id="Layer_2" data-name="Layer 2"><g id="Layer_1-2" data-name="Layer 1"><path class="cls-1" d="M61.72,23.91a4.41,4.41,0,0,1-5.13-3.55,4.34,4.34,0,0,1,.62-3.13,6.72,6.72,0,0,0-2.57,0,6.91,6.91,0,1,0,8.13,6.36A4.63,4.63,0,0,1,61.72,23.91Z"/><path class="cls-2" d="M90.69,17.87c-3.44,6.45-8.44,13.45-13.46,17.88,9.64,6.49,17.31,14,16.51,27C107.43,48.47,106.06,30.68,90.69,17.87Z"/><path class="cls-3" d="M89.5,55.61c-3.06-7.06-7.43-12.67-15.77-16.51-.32,7.84,1.54,14.43,3.31,21.64A15.4,15.4,0,0,0,89.5,55.61Z"/><path class="cls-4" d="M43.23,22.05c-29.1,3.08-44.73,30-30.89,51.8,11.43,17.47,46.87,19.38,57.37-2,5.11-10.18-.26-32.83-2.32-41.42h0c-5,10.13-24.89,8.79-24.25-7.52"/><path class="cls-5" d="M0,44.11c10.56-15,26.68-24.45,45.25-27.28,7-10.21,22.58-6,23.76,6,3.12,2.92,5.24,9.54,5.24,9.54a39.28,39.28,0,0,0,12-18C58.25-16.68,6.69,7,0,44.11Z"/></g></g></svg>